<?xml version="1.0" encoding="utf-8"?><svg version="1.1" id="Layer_1" xmlns="http://www.w3.org/2000/svg" xmlns:xlink="http://www.w3.org/1999/xlink" x="0px" y="0px" viewBox="0 0 105.34 122.88" style="enable-background:new 0 0 105.34 122.88" xml:space="preserve"><style type="text/css">.st0{fill-rule:evenodd;clip-rule:evenodd;}</style><g><path class="st0" d="M17.52,0h84.44v94.24c-0.15,2.63-3.55,2.7-7.23,2.53H16.27c-5.08,0-9.24,4.15-9.24,9.24 c0,5.08,4.15,9.24,9.24,9.24h81.84v-9.83h7.23v12.49c0,2.28-1.86,4.13-4.13,4.13H16.63C7.48,125.44,0,117.95,0,108.81V17.52 C0,7.88,7.88,0,17.52,0L17.52,0z M52.67,83.38L24.59,54.18h18.07V27.02h20.01v27.16h18.07L52.67,83.38L52.67,83.38z"/></g></svg>