<svg id="Layer_1" data-name="Layer 1" xmlns="http://www.w3.org/2000/svg" viewBox="0 0 122.88 102.25"><defs><style>.cls-1{fill-rule:evenodd;}</style></defs><title>free-tag</title><path class="cls-1" d="M61.44,0A13.45,13.45,0,0,1,74.88,13.44,13.61,13.61,0,0,1,74.4,17l29.26,22.72a3.26,3.26,0,0,1,.63.66h9.47a9.15,9.15,0,0,1,9.12,9.13V93.13a9.13,9.13,0,0,1-9.12,9.12H9.11A9.13,9.13,0,0,1,0,93.15H0V49.52a9.15,9.15,0,0,1,9.12-9.13h9.47a3.26,3.26,0,0,1,.63-.66L48.48,17A13.61,13.61,0,0,1,48,13.44,13.45,13.45,0,0,1,61.44,0Zm9.78,22.65-.28.29a13.45,13.45,0,0,1-19,0l-.28-.29L28.81,40.39H94.07L71.22,22.65ZM36.72,57c-.09,1.27-.16,2.52-.23,3.76s-.15,2.5-.26,3.76L27.66,65V67.5H35.1l-.41,6.27-7.08.2.05,12-10.23.2L18.08,57Zm25.93,9.66a13.9,13.9,0,0,1-.27,2.86A8.23,8.23,0,0,1,60,73.85a13,13,0,0,1-2.24,1.74l4.81,8.57-9.1,1.78-3.11-8.61-2.5.08-.37,8.41H38.8c.07-3.07.13-6.14.19-9.18s.13-6.11.21-9.18c0-1.55,0-3.08.08-4.61s.08-3.05.17-4.61a26.07,26.07,0,0,1,2.78-.87c.92-.22,1.84-.4,2.76-.53s1.87-.22,2.81-.27,1.93-.07,2.92-.07a15.89,15.89,0,0,1,4.47.64A11.61,11.61,0,0,1,59,59.05a9.62,9.62,0,0,1,2.66,3.17,9.37,9.37,0,0,1,1,4.43Zm-9,.65a4.82,4.82,0,0,0-.24-1.56,3.34,3.34,0,0,0-.69-1.22,3.15,3.15,0,0,0-1.13-.81A4,4,0,0,0,50,63.42a5.08,5.08,0,0,0-.79,0,5.85,5.85,0,0,0-.75.15l-.32,7.52h.48a7.79,7.79,0,0,0,1.77-.22A5.36,5.36,0,0,0,52,70.23,3.69,3.69,0,0,0,53.14,69a3.18,3.18,0,0,0,.46-1.74ZM84.41,57c-.09,1.27-.16,2.52-.22,3.76s-.16,2.5-.27,3.76L75.35,65l-.2,2.54h6l-.44,6.27-6.07.2-.2,3H83c-.08,1.49-.16,3-.25,4.42s-.17,2.93-.24,4.39l-17.42.41L65.77,57Zm21,0c-.08,1.27-.16,2.52-.22,3.76s-.16,2.5-.26,3.76L96.39,65l-.2,2.54h6l-.44,6.27-6.06.2-.21,3h8.58c-.09,1.49-.17,3-.26,4.42s-.16,2.93-.23,4.39l-17.43.41L86.81,57Zm8.31-11.11H9.12a3.65,3.65,0,0,0-3.63,3.64V93.15h0a3.64,3.64,0,0,0,3.63,3.61H113.76a3.65,3.65,0,0,0,3.63-3.63V49.52a3.65,3.65,0,0,0-3.63-3.64ZM61.44,7.75a5.68,5.68,0,1,1-4,1.67,5.67,5.67,0,0,1,4-1.67Z"/></svg>