<?xml version="1.0" encoding="UTF-8"?>
<svg version="1.1" xmlns="http://www.w3.org/2000/svg" width="52" height="32">
<path d="M0 0 C1.20785156 -0.01933594 2.41570313 -0.03867188 3.66015625 -0.05859375 C7.48925666 0.52101978 8.65911353 1.36251387 10.9375 4.4375 C11.59159142 8.28028709 11.28836139 9.88614639 9.1875 13.1875 C7.13370268 15.24129732 5.61345462 16.38623212 2.9375 17.4375 C4.9175 20.4075 4.9175 20.4075 6.9375 23.4375 C8.9175 23.1075 10.8975 22.7775 12.9375 22.4375 C13.29825949 26.88686709 13.29825949 26.88686709 11.75 29.25 C9.28044898 30.8679817 7.85172311 30.78443132 4.9375 30.4375 C2.91796875 28.79296875 2.91796875 28.79296875 1.125 26.625 C0.52042969 25.91730469 -0.08414063 25.20960937 -0.70703125 24.48046875 C-2.0625 22.4375 -2.0625 22.4375 -2.0625 19.4375 C-2.7225 19.4375 -3.3825 19.4375 -4.0625 19.4375 C-5.0525 23.7275 -6.0425 28.0175 -7.0625 32.4375 C-9.0425 32.4375 -11.0225 32.4375 -13.0625 32.4375 C-13.08999766 31.06261713 -13.1091164 29.68756609 -13.125 28.3125 C-13.13660156 27.54679687 -13.14820312 26.78109375 -13.16015625 25.9921875 C-13.0625 23.4375 -13.0625 23.4375 -12.0625 17.4375 C-13.0525 21.3975 -14.0425 25.3575 -15.0625 29.4375 C-17.3725 29.4375 -19.6825 29.4375 -22.0625 29.4375 C-23.5475 25.9725 -23.5475 25.9725 -25.0625 22.4375 C-26.0525 24.7475 -27.0425 27.0575 -28.0625 29.4375 C-30.0425 29.4375 -32.0225 29.4375 -34.0625 29.4375 C-34.90289886 26.85627492 -35.73500556 24.27286099 -36.5625 21.6875 C-36.80097656 20.95789063 -37.03945313 20.22828125 -37.28515625 19.4765625 C-37.51074219 18.76757812 -37.73632812 18.05859375 -37.96875 17.328125 C-38.28295898 16.35407715 -38.28295898 16.35407715 -38.60351562 15.36035156 C-39.0625 13.4375 -39.0625 13.4375 -39.0625 9.4375 C-37.0825 9.4375 -35.1025 9.4375 -33.0625 9.4375 C-32.0725 11.7475 -31.0825 14.0575 -30.0625 16.4375 C-29.4025 14.1275 -28.7425 11.8175 -28.0625 9.4375 C-26.0825 9.4375 -24.1025 9.4375 -22.0625 9.4375 C-21.0725 12.0775 -20.0825 14.7175 -19.0625 17.4375 C-18.835625 16.055625 -18.60875 14.67375 -18.375 13.25 C-17.12407147 7.63844032 -14.43739537 5.14992456 -9.8359375 1.83203125 C-6.38522988 0.09695714 -3.84928593 0.00411688 0 0 Z M-4.0625 5.4375 C-3.7325 8.0775 -3.4025 10.7175 -3.0625 13.4375 C1.35272109 12.16775028 1.35272109 12.16775028 4.9375 9.4375 C4.6189823 7.32929203 4.6189823 7.32929203 3.9375 5.4375 C1.2975 5.4375 -1.3425 5.4375 -4.0625 5.4375 Z M-10.0625 8.4375 C-9.0625 10.4375 -9.0625 10.4375 -9.0625 10.4375 Z " fill="#F39832" transform="translate(39.0625,-0.4375)"/>
<path d="M0 0 C1.98 0 3.96 0 6 0 C6.99 2.31 7.98 4.62 9 7 C9.66 4.69 10.32 2.38 11 0 C12.98 0 14.96 0 17 0 C17.99 2.64 18.98 5.28 20 8 C20.66 5.69 21.32 3.38 22 1 C23.98 0.67 25.96 0.34 28 0 C27.34034961 6.86036401 25.7637236 13.34443923 24 20 C21.69 20 19.38 20 17 20 C15.515 16.535 15.515 16.535 14 13 C13.01 15.31 12.02 17.62 11 20 C9.02 20 7.04 20 5 20 C4.15960114 17.41877492 3.32749444 14.83536099 2.5 12.25 C2.26152344 11.52039062 2.02304687 10.79078125 1.77734375 10.0390625 C1.55175781 9.33007812 1.32617188 8.62109375 1.09375 7.890625 C0.88427734 7.24125977 0.67480469 6.59189453 0.45898438 5.92285156 C0 4 0 4 0 0 Z " fill="#0909ED" transform="translate(0,9)"/>
<path d="M0 0 C0.33 0 0.66 0 1 0 C1.34717213 3.73210035 1.2922789 5.54070458 -0.75 8.75 C-2.80379732 10.80379732 -4.32404538 11.94873212 -7 13 C-5.02 15.97 -5.02 15.97 -3 19 C-1.02 18.67 0.96 18.34 3 18 C3.36075949 22.44936709 3.36075949 22.44936709 1.8125 24.8125 C-0.65705102 26.4304817 -2.08577689 26.34693132 -5 26 C-7.01953125 24.35546875 -7.01953125 24.35546875 -8.8125 22.1875 C-9.41707031 21.47980469 -10.02164063 20.77210937 -10.64453125 20.04296875 C-12 18 -12 18 -12 15 C-12.66 15 -13.32 15 -14 15 C-14.99 19.29 -15.98 23.58 -17 28 C-18.98 28 -20.96 28 -23 28 C-22.35417969 27.77183594 -21.70835938 27.54367188 -21.04296875 27.30859375 C-18.7803603 26.18572816 -18.7803603 26.18572816 -18.42578125 23.78515625 C-18.38839844 22.88667969 -18.35101562 21.98820312 -18.3125 21.0625 C-18.22355469 19.59683594 -18.22355469 19.59683594 -18.1328125 18.1015625 C-18.08898437 17.07804687 -18.04515625 16.05453125 -18 15 C-17.91343002 12.9783364 -17.81007364 10.95730043 -17.6875 8.9375 C-17.65011719 8.03902344 -17.61273437 7.14054688 -17.57421875 6.21484375 C-17.38472656 5.48394531 -17.19523437 4.75304687 -17 4 C-15.68 3.34 -14.36 2.68 -13 2 C-13 4.97 -13 7.94 -13 11 C-6.58385938 9.27143315 -6.58385938 9.27143315 -1.66796875 5.17578125 C-0.7516556 3.06647085 -0.7516556 3.06647085 0 0 Z " fill="#E48011" transform="translate(49,4)"/>
<path d="M0 0 C1.98 0 3.96 0 6 0 C7.97094808 4.92737019 8.1799928 8.78020872 8 14 C8.66 14 9.32 14 10 14 C10.33 12.02 10.66 10.04 11 8 C12.32 7.67 13.64 7.34 15 7 C14.71517632 8.41805831 14.42181856 9.83440379 14.125 11.25 C13.96257813 12.03890625 13.80015625 12.8278125 13.6328125 13.640625 C13.00849925 15.96831144 12.15161458 17.89031952 11 20 C9.02 20 7.04 20 5 20 C4.15960114 17.41877492 3.32749444 14.83536099 2.5 12.25 C2.26152344 11.52039062 2.02304687 10.79078125 1.77734375 10.0390625 C1.55175781 9.33007812 1.32617188 8.62109375 1.09375 7.890625 C0.88427734 7.24125977 0.67480469 6.59189453 0.45898438 5.92285156 C0 4 0 4 0 0 Z " fill="#0606EE" transform="translate(0,9)"/>
<path d="M0 0 C0.66 0 1.32 0 2 0 C2.28571429 7.42857143 2.28571429 7.42857143 0 11 C0.99 11 1.98 11 3 11 C3 11.66 3 12.32 3 13 C2.34 13 1.68 13 1 13 C0.01 17.29 -0.98 21.58 -2 26 C-3.98 26 -5.96 26 -8 26 C-7.03344482 25.65775391 -7.03344482 25.65775391 -6.04736328 25.30859375 C-3.78440306 24.18451043 -3.78440306 24.18451043 -3.39404297 21.78515625 C-3.34393066 20.88667969 -3.29381836 19.98820312 -3.2421875 19.0625 C-3.17386719 18.08539062 -3.10554688 17.10828125 -3.03515625 16.1015625 C-2.98230469 15.07804687 -2.92945313 14.05453125 -2.875 13 C-2.75535008 10.97868011 -2.62811733 8.95779039 -2.4921875 6.9375 C-2.42040283 5.58978516 -2.42040283 5.58978516 -2.34716797 4.21484375 C-2 2 -2 2 0 0 Z " fill="#935817" transform="translate(34,6)"/>
<path d="M0 0 C0.66 0 1.32 0 2 0 C1.34034961 6.86036401 -0.2362764 13.34443923 -2 20 C-4.31 20 -6.62 20 -9 20 C-9.33 19.34 -9.66 18.68 -10 18 C-8.02 17.67 -6.04 17.34 -4 17 C-3.49595192 14.89679937 -2.99689492 12.79240209 -2.5 10.6875 C-2.2215625 9.51574219 -1.943125 8.34398437 -1.65625 7.13671875 C-0.89760916 4.04470156 -0.89760916 4.04470156 -1 1 C-0.67 0.67 -0.34 0.34 0 0 Z " fill="#090998" transform="translate(26,9)"/>
<path d="M0 0 C0.33 0 0.66 0 1 0 C1.11459026 7.41017023 0.91160286 14.64206267 0 22 C-1.65 22.33 -3.3 22.66 -5 23 C-3.35 15.41 -1.7 7.82 0 0 Z " fill="#F1840A" transform="translate(31,8)"/>
<path d="M0 0 C1.21236328 0.01353516 1.21236328 0.01353516 2.44921875 0.02734375 C3.37154297 0.04474609 3.37154297 0.04474609 4.3125 0.0625 C4.6425 0.7225 4.9725 1.3825 5.3125 2.0625 C4.64863281 2.08828125 3.98476563 2.1140625 3.30078125 2.140625 C-2.36712625 2.50469497 -5.42605961 3.05173257 -9.6875 7.0625 C-12 7.8125 -12 7.8125 -13.6875 8.0625 C-12.29165208 4.68920085 -10.76384389 3.02017338 -7.6875 1.0625 C-4.80538698 0.10179566 -2.98899956 -0.04331883 0 0 Z " fill="#885319" transform="translate(37.6875,2.9375)"/>
<path d="M0 0 C0 0.33 0 0.66 0 1 C-0.66386719 1.04898438 -1.32773437 1.09796875 -2.01171875 1.1484375 C-8.81046816 1.53642385 -8.81046816 1.53642385 -15 4 C-16.85251681 6.22302017 -18.46138802 8.5513154 -20 11 C-20.66 10.67 -21.32 10.34 -22 10 C-21.15220218 6.29088453 -19.62780368 4.3679591 -16.625 2.1875 C-11.34911413 -0.92741416 -5.93837804 -0.44537835 0 0 Z " fill="#FAB870" transform="translate(44,0)"/>
<path d="M0 0 C-0.28482368 1.41805831 -0.57818144 2.83440379 -0.875 4.25 C-1.03742187 5.03890625 -1.19984375 5.8278125 -1.3671875 6.640625 C-1.99150075 8.96831144 -2.84838542 10.89031952 -4 13 C-5.98 13 -7.96 13 -10 13 C-9.67 12.34 -9.34 11.68 -9 11 C-7.35 11 -5.7 11 -4 11 C-4 7.7 -4 4.4 -4 1 C-2 0 -2 0 0 0 Z " fill="#0C0C9A" transform="translate(15,16)"/>
<path d="M0 0 C1.98 0 3.96 0 6 0 C5.67 0.66 5.34 1.32 5 2 C4.01 2.33 3.02 2.66 2 3 C0.96961044 5.56042066 0.96961044 5.56042066 0.3125 8.5625 C0.06113281 9.57441406 -0.19023437 10.58632813 -0.44921875 11.62890625 C-0.63097656 12.41136719 -0.81273437 13.19382812 -1 14 C-1.66 14 -2.32 14 -3 14 C-2.40380045 9.13103697 -1.43023178 4.67209049 0 0 Z " fill="#7C7CFD" transform="translate(11,9)"/>
<path d="M0 0 C0.66 0 1.32 0 2 0 C1.36934845 5.7809725 0.34844868 11.3443706 -1 17 C-1.33 17 -1.66 17 -2 17 C-1.9278125 16.09636719 -1.855625 15.19273438 -1.78125 14.26171875 C-1.6884375 13.08222656 -1.595625 11.90273438 -1.5 10.6875 C-1.4071875 9.51574219 -1.314375 8.34398437 -1.21875 7.13671875 C-1.07635011 5.094806 -1 3.0468721 -1 1 C-0.67 0.67 -0.34 0.34 0 0 Z " fill="#1E1C89" transform="translate(26,9)"/>
<path d="M0 0 C0.66 0.33 1.32 0.66 2 1 C1 8.42857143 1 8.42857143 0 12 C-0.66 12 -1.32 12 -2 12 C-1.85962479 10.18706911 -1.71255111 8.3746557 -1.5625 6.5625 C-1.48128906 5.55316406 -1.40007813 4.54382813 -1.31640625 3.50390625 C-1 1 -1 1 0 0 Z " fill="#6463FA" transform="translate(22,10)"/>
<path d="M0 0 C0.33 0 0.66 0 1 0 C1.34530062 3.71198163 1.25629673 5.57283878 -0.6875 8.8125 C-3.21501576 11.20339329 -4.58470886 11.7153924 -8 12 C-7.236875 11.319375 -6.47375 10.63875 -5.6875 9.9375 C-2.67156669 6.64101475 -1.54120983 4.13693165 0 0 Z " fill="#664C2E" transform="translate(49,4)"/>
<path d="M0 0 C0.66 0 1.32 0 2 0 C2.66 3.3 3.32 6.6 4 10 C3.01 10 2.02 10 1 10 C0.67 6.7 0.34 3.4 0 0 Z " fill="#0808C2" transform="translate(16,10)"/>
<path d="M0 0 C1.98 0 3.96 0 6 0 C5.01 1.485 5.01 1.485 4 3 C3.34 3 2.68 3 2 3 C2.33 5.64 2.66 8.28 3 11 C0.43383368 7.15075052 0.44902324 4.5650696 0 0 Z " fill="#5152F7" transform="translate(0,9)"/>
<path d="M0 0 C0.6875 1.8125 0.6875 1.8125 1 4 C-0.125 5.75 -0.125 5.75 -2 7 C-4.6875 7.1875 -4.6875 7.1875 -7 7 C-7.33 6.34 -7.66 5.68 -8 5 C-7.05125 4.731875 -6.1025 4.46375 -5.125 4.1875 C-1.74732727 3.25013412 -1.74732727 3.25013412 0 0 Z " fill="#6F4D27" transform="translate(51,23)"/>
<path d="M0 0 C2.31 0.33 4.62 0.66 7 1 C6.2884375 1.680625 6.2884375 1.680625 5.5625 2.375 C3.90972192 3.93258204 3.90972192 3.93258204 3 6 C2.34 6 1.68 6 1 6 C0.67 4.02 0.34 2.04 0 0 Z " fill="#1617F8" transform="translate(15,21)"/>
<path d="M0 0 C0.33 0.99 0.66 1.98 1 3 C-1.6855594 5.6855594 -4.37621328 6.06049974 -8 7 C-8 6.01 -8 5.02 -8 4 C-6.865625 3.525625 -5.73125 3.05125 -4.5625 2.5625 C-1.24259834 1.36377917 -1.24259834 1.36377917 0 0 Z " fill="#FCBE78" transform="translate(43,9)"/>
<path d="M0 0 C1 2 1 2 0.0625 5.125 C-0.288125 6.07375 -0.63875 7.0225 -1 8 C-1.66 8 -2.32 8 -3 8 C-2.74438677 5.6568787 -2.40729228 3.32156597 -2 1 C-1.34 0.67 -0.68 0.34 0 0 Z " fill="#595AFB" transform="translate(11,15)"/>
<path d="M0 0 C0.99 0.495 0.99 0.495 2 1 C2.59355614 3.64860427 2.74209269 6.29197322 3 9 C1.5 7.875 1.5 7.875 0 6 C-0.1875 2.8125 -0.1875 2.8125 0 0 Z " fill="#0506B7" transform="translate(5,10)"/>
</svg>
