<?xml version="1.0" encoding="utf-8"?>
<!-- Generator: Adobe Illustrator 26.4.1, SVG Export Plug-In . SVG Version: 6.00 Build 0)  -->
<svg version="1.1" id="Logo" xmlns="http://www.w3.org/2000/svg" xmlns:xlink="http://www.w3.org/1999/xlink" x="0px" y="0px"
	 viewBox="0 0 660 222" style="enable-background:new 0 0 660 222;" xml:space="preserve">
<style type="text/css">
	.st0{display:none;fill:#CCCCCC;}
	.st1{fill:none;}
	.st2{fill:#FF5500;}
</style>
<rect x="643.58" y="565.89" class="st0" width="39.42" height="46.48"/>
<rect x="643.58" y="413.28" class="st0" width="39.42" height="46.48"/>
<rect y="0" class="st1" width="660" height="222"/>
<g>
	<path class="st2" d="M118.62,43.34c-15.9,0-30.44,8.7-37.98,22.45c-7.52-13.75-21.99-22.45-37.78-22.45
		c-12.69,0-24.23,5.38-32.36,14.93v-9.51c0-3.39-2.65-5.42-5.21-5.42c-3.12,0-5.21,2.18-5.21,5.42L0,144.03
		c0,2.84,1.65,4.96,4.21,5.38l1.07,0.04c2.59,0,5.21-1.86,5.21-5.42l0-58.64c0.57-17.33,15.08-31.43,32.36-31.43
		c17.96,0,32.57,14.7,32.57,32.77v57.29c0,2.98,2.44,5.41,5.45,5.41c3.24,0,5.18-2.75,5.18-5.41l0-58.64
		c0.57-17.62,14.88-31.43,32.57-31.43c17.73,0,32.16,14.7,32.16,32.77v57.29c0,3.1,2.86,5.42,5.42,5.42c2.92,0,5.21-2.38,5.21-5.42
		V86.75C161.41,62.81,142.21,43.34,118.62,43.34z"/>
	<g>
		<path class="st2" d="M293.16,96.17c-0.59-28.97-21.66-53.09-50.1-57.34c-27.54-4.11-54.96,13.37-63.75,40.68
			c-8.63,26.79,5.21,57.47,31.52,69.85c7.34,3.46,15.26,5.21,23.53,5.21c19.67,0,38.11-9.82,49.31-26.27
			c5.98-8.78,9.26-19.71,9.5-31.59c0-0.1,0.01-0.19,0.01-0.26C293.17,96.35,293.17,96.26,293.16,96.17z M285.64,96.61
			c-0.21,10.39-3.06,19.91-8.25,27.54c-9.77,14.34-25.83,22.9-42.97,22.9c-7.18,0-14.06-1.52-20.44-4.53
			c-20.25-9.53-32.02-31.5-29.3-52.56c1.51,0.65,3.28,1.24,5.11,1.84c3.69,1.21,7.5,2.46,8.78,4.21c1.63,2.23,1.36,4.52,1.08,6.95
			c-0.38,3.24-0.81,6.92,3.53,10.74c2.42,2.13,3.25,7.37,3.92,11.58c0.25,1.59,0.49,3.09,0.79,4.28c0.76,3.05,4.34,6.17,7.49,8.93
			l0.33,0.29c0.29,0.25,0.65,0.38,1.01,0.38c0.25,0,0.51-0.06,0.74-0.19c0.58-0.31,0.88-0.94,0.79-1.58
			c-0.76-5.15,0.9-9.64,5.4-14.53c0.73-0.79,1.87-1.77,3.19-2.91c3.99-3.42,9.45-8.12,8.83-12.39c-0.3-2.1-2.04-3.87-5.17-5.27
			c-1.76-0.79-3.95-2.22-6.27-3.73c-4.85-3.16-10.34-6.73-14.4-6.14c-6.07,0.9-7.94-0.98-9.91-2.96c-1.6-1.62-3.27-3.29-7.19-3.23
			l-0.11-0.11c0.24-2.25,0.81-3.62,1.69-4.08c1.17-0.61,2.9,0.33,4.58,1.24c1.57,0.85,3.04,1.66,4.22,1.3
			c2.95-0.89,4.94-3.51,7.06-6.28c2.22-2.91,4.52-5.92,8.1-7.12c3.84-1.28,4.87-3.95,4.55-6.02c-0.37-2.44-2.75-5.1-7.09-5.19
			c-6.78-0.13-7.01-0.86-8.09-4.33c-0.12-0.39-0.26-0.83-0.42-1.3c8.18-5.47,17.83-8.59,27.77-8.59c2.33,0,4.67,0.17,7.02,0.52
			c7.13,1.07,13.72,3.57,19.52,7.2c-3.74,0.76-5.78,1.86-6.17,3.36c-0.52,2.02,2.02,4.08,3.87,5.59c0.69,0.56,1.54,1.25,1.6,1.45
			c-0.12,0.83-2.57,1.67-4.95,2.49c-5.06,1.74-11.98,4.13-10.09,9.91c0.09,0.28,0.31,0.48,0.6,0.54c0.28,0.06,0.57-0.03,0.76-0.24
			c2.03-2.16,15.75-1.49,17.67-0.97c2.14,0.58,3.36-0.22,4.43-0.92c0.78-0.51,1.44-0.95,2.41-0.85c0.7,0.08,0.96,1.05,1.06,1.62
			c0.32,1.94-0.32,4.36-1.02,4.69c-3.82,1.79-7.01,0.16-10.1-1.41c-2.22-1.13-4.32-2.2-6.61-2.08c-3.79,0.21-9.69,3.15-12.62,7.53
			c-1.63,2.43-2.06,4.95-1.25,7.28c0.26,0.74,0.21,1.59,0.15,2.49c-0.1,1.61-0.2,3.44,1.78,4.54c1.99,1.1,4.44,1.07,6.8,1.04
			c3.31-0.05,6.44-0.09,8.33,2.75c0.47,0.7,0.74,3.19,1.06,6.07c0.71,6.43,1.69,15.24,5.86,17.55c0.68,0.38,1.42,0.57,2.22,0.57
			c0.94,0,1.96-0.26,3.04-0.79c5.43-2.62,5.55-8.35,5.66-13.4c0.07-3.36,0.13-6.53,1.89-7.95c4.24-3.42,5.8-5.23,5.77-6.7
			c-0.02-1.16-1.03-1.91-2.31-2.86c-1.84-1.36-4.34-3.22-5.54-7.42c1.78,1.85,5.37,5.15,6.32,5.74c1.32,0.82,2.45,1.24,3.39,1.28
			c0.03,0.62,0.07,1.24,0.08,1.87l0,0.17L285.64,96.61z"/>
		<path class="st2" d="M244.92,53.34c1.19-1.42,0.95-2.41,0.54-3c-1.85-2.62-10.9-1.57-16.77-0.76c-1.3,0.18-3.03,0.19-3.77-0.42
			c-0.85-0.7-3.47-0.17-5,0.16c-2.07,0.45-4.41,0.71-6.09,3.23c-0.36,0.54-0.35,1.24,0.02,1.74c0.41,0.55,1,0.86,1.75,0.91
			c0.08,0.01,0.16,0.01,0.24,0.01c1.72,0,4.21-1.51,5.92-2.61c1.17-0.76,2.21-0.63,2.19,0.94c-0.01,0.56,0.71,2.6,0.87,2.92
			c1.1,2.41,2.63,4.92,4.55,5.16c0.07,0.01,0.15,0.01,0.23,0.01C232.75,61.64,243.35,55.21,244.92,53.34z"/>
	</g>
	<path class="st2" d="M394.89,144.03V86.75c0-23.93-19.38-43.4-43.2-43.4c-12.66,0-24.57,5.53-32.77,15v-9.79
		c0-3.07-2.14-5.21-5.21-5.21c-3.14,0-5.42,2.19-5.42,5.21v95.48c0,3.61,3.21,5.42,5.01,5.42h0.41c2.16,0,5.21-1.68,5.21-5.42V86.75
		c0-18.07,14.7-32.77,32.77-32.77c17.96,0,32.57,14.7,32.57,32.77v57.29c0,3.14,2.19,5.42,5.21,5.42
		C392.4,149.45,394.89,146.97,394.89,144.03z"/>
	<path class="st2" d="M462.21,149.23c16.11,0,30.9-7.58,40.58-20.54v15.12c0,2.94,2.39,5.42,5.21,5.42c3.04,0,5.42-2.38,5.42-5.42
		V5.83c0-2.8-2.07-5.83-5.42-5.83c-2.98,0-5.21,3.08-5.21,5.83v57.95c-9.66-13.03-24.44-20.66-40.58-20.66
		c-28.46,0-51.62,23.71-51.62,52.85C410.59,125.34,433.75,149.23,462.21,149.23z M421.22,95.97c0-23.28,18.39-42.22,40.99-42.22
		c21.59,0,39.79,18.13,40.58,40.42v1.8c0,23.51-18.2,42.63-40.58,42.63C439.61,138.6,421.22,119.47,421.22,95.97z"/>
	<path class="st2" d="M544.05,149.23c2.92,0,5.21-2.38,5.21-5.42V5.42c0-3.04-2.29-5.42-5.21-5.42c-3.04,0-5.42,2.38-5.42,5.42
		v138.39C538.63,146.85,541.01,149.23,544.05,149.23z"/>
	<path class="st2" d="M654.94,43.12h-0.41c-2.5,0-5.16,1.9-5.16,5.42l0,58.6c-0.76,17.41-14.8,31.05-31.95,31.05
		c-17.96,0-32.57-14.52-32.57-32.36V48.54c0-2.94-2.39-5.42-5.21-5.42c-3.04,0-5.42,2.38-5.42,5.42v57.29
		c0,23.71,19.38,42.99,43.2,42.99c12.47,0,24.07-5.32,31.95-14.44v11.35c0,21.69-17.65,39.34-39.34,39.34c-6,0-11.5-1.35-17.33-4.26
		l-0.13-0.06c-2.22-0.88-5.41-0.03-6.61,2.66c-0.69,1.55-0.78,3.08-0.26,4.42c0.47,1.19,1.39,2.14,2.61,2.67
		c6.91,3.45,14.22,5.2,21.72,5.2c27.56,0,49.98-22.42,49.98-49.98V48.54C660,45.35,657.33,43.12,654.94,43.12z"/>
</g>
<g>
	<path class="st2" d="M335.7,186.66c3.01,0,5.36,1.09,7.04,3.27c1.68,2.18,2.52,5.25,2.52,9.2c0,3.96-0.85,7.04-2.55,9.25
		c-1.7,2.21-4.07,3.31-7.1,3.31c-3.06,0-5.43-1.1-7.12-3.3h-0.35l-0.94,2.86h-3.84v-33.98h5.13v8.08c0,0.6-0.03,1.49-0.09,2.67
		c-0.06,1.18-0.1,1.93-0.13,2.25h0.22C330.12,187.86,332.52,186.66,335.7,186.66z M334.37,190.86c-2.07,0-3.56,0.61-4.47,1.82
		c-0.91,1.22-1.38,3.25-1.41,6.11v0.35c0,2.94,0.47,5.07,1.4,6.39c0.93,1.32,2.45,1.98,4.57,1.98c1.82,0,3.2-0.72,4.14-2.16
		c0.94-1.44,1.41-3.52,1.41-6.25C340,193.6,338.12,190.86,334.37,190.86z"/>
	<path class="st2" d="M346.84,187.1h5.59l4.91,13.7c0.74,1.95,1.24,3.79,1.49,5.5h0.17c0.13-0.8,0.37-1.77,0.72-2.92
		c0.35-1.15,2.2-6.57,5.55-16.28h5.55l-10.33,27.37c-1.88,5.02-5.01,7.54-9.39,7.54c-1.14,0-2.24-0.12-3.32-0.37v-4.06
		c0.77,0.17,1.65,0.26,2.64,0.26c2.48,0,4.22-1.44,5.22-4.3l0.9-2.27L346.84,187.1z"/>
	<path class="st2" d="M406.37,188.98c0,3.34-1.09,5.89-3.28,7.67c-2.18,1.78-5.29,2.67-9.33,2.67h-3.32v11.95h-5.22v-31.93h9.19
		c3.99,0,6.98,0.82,8.97,2.45C405.37,183.4,406.37,185.8,406.37,188.98z M390.45,194.92h2.77c2.68,0,4.64-0.47,5.9-1.4
		c1.25-0.93,1.88-2.39,1.88-4.37c0-1.83-0.56-3.2-1.68-4.11c-1.12-0.9-2.87-1.35-5.24-1.35h-3.63V194.92z"/>
	<path class="st2" d="M422.03,211.69c-3.76,0-6.69-1.1-8.81-3.29c-2.12-2.19-3.18-5.21-3.18-9.05c0-3.94,0.98-7.05,2.95-9.3
		c1.96-2.26,4.67-3.38,8.1-3.38c3.19,0,5.71,0.97,7.56,2.9c1.85,1.94,2.77,4.6,2.77,8v2.77h-16.1c0.07,2.35,0.71,4.14,1.9,5.41
		c1.19,1.26,2.88,1.89,5.05,1.89c1.43,0,2.76-0.14,3.99-0.4c1.23-0.27,2.55-0.72,3.96-1.34v4.17c-1.25,0.6-2.52,1.02-3.8,1.27
		C425.14,211.57,423.68,211.69,422.03,211.69z M421.09,190.55c-1.63,0-2.94,0.52-3.92,1.55c-0.98,1.04-1.57,2.54-1.76,4.52h10.96
		c-0.03-2-0.51-3.51-1.44-4.53C424.01,191.06,422.72,190.55,421.09,190.55z"/>
	<path class="st2" d="M451.65,211.25l-1.03-3.37h-0.17c-1.17,1.47-2.34,2.47-3.52,3.01c-1.18,0.53-2.69,0.8-4.54,0.8
		c-2.37,0-4.23-0.64-5.56-1.92c-1.33-1.28-2-3.09-2-5.44c0-2.49,0.92-4.37,2.77-5.63c1.85-1.27,4.67-1.96,8.45-2.07l4.17-0.13v-1.29
		c0-1.54-0.36-2.7-1.08-3.46c-0.72-0.76-1.84-1.15-3.35-1.15c-1.24,0-2.42,0.18-3.56,0.55c-1.14,0.37-2.23,0.8-3.28,1.29l-1.66-3.67
		c1.31-0.69,2.75-1.21,4.3-1.56c1.56-0.36,3.03-0.53,4.41-0.53c3.07,0,5.39,0.67,6.96,2.01c1.56,1.34,2.35,3.45,2.35,6.31v16.27
		H451.65z M444.01,207.76c1.86,0,3.36-0.52,4.49-1.56c1.13-1.04,1.69-2.5,1.69-4.38v-2.1l-3.1,0.13c-2.42,0.09-4.17,0.49-5.27,1.21
		c-1.1,0.72-1.65,1.82-1.65,3.31c0,1.08,0.32,1.91,0.96,2.5C441.77,207.47,442.73,207.76,444.01,207.76z"/>
	<path class="st2" d="M474.03,186.66c1.03,0,1.88,0.07,2.55,0.22l-0.5,4.78c-0.73-0.17-1.49-0.26-2.27-0.26
		c-2.05,0-3.72,0.67-4.99,2.01c-1.27,1.34-1.91,3.08-1.91,5.22v12.63h-5.13V187.1h4.02l0.68,4.26h0.26c0.8-1.44,1.84-2.59,3.14-3.43
		C471.15,187.08,472.54,186.66,474.03,186.66z"/>
	<path class="st2" d="M496.57,204.38c0,2.36-0.86,4.17-2.58,5.43c-1.72,1.26-4.18,1.89-7.38,1.89c-3.22,0-5.8-0.49-7.75-1.46v-4.44
		c2.84,1.31,5.48,1.97,7.93,1.97c3.16,0,4.74-0.95,4.74-2.86c0-0.61-0.17-1.12-0.52-1.53s-0.93-0.83-1.72-1.27
		c-0.8-0.44-1.92-0.93-3.34-1.49c-2.78-1.08-4.66-2.15-5.65-3.23s-1.48-2.48-1.48-4.19c0-2.07,0.83-3.67,2.5-4.82
		c1.67-1.14,3.93-1.71,6.8-1.71c2.84,0,5.53,0.57,8.06,1.72l-1.66,3.87c-2.61-1.08-4.8-1.62-6.57-1.62c-2.71,0-4.06,0.77-4.06,2.32
		c0,0.76,0.35,1.4,1.06,1.92c0.71,0.52,2.25,1.24,4.62,2.16c2,0.77,3.44,1.48,4.35,2.12c0.9,0.64,1.57,1.38,2.01,2.22
		C496.35,202.21,496.57,203.21,496.57,204.38z"/>
	<path class="st2" d="M522.83,199.13c0,3.94-1.01,7.02-3.04,9.24c-2.03,2.21-4.84,3.32-8.45,3.32c-2.26,0-4.25-0.51-5.98-1.53
		c-1.73-1.02-3.06-2.48-4-4.39c-0.93-1.91-1.4-4.12-1.4-6.64c0-3.92,1-6.98,3.01-9.17c2.01-2.2,4.84-3.3,8.5-3.3
		c3.49,0,6.26,1.12,8.3,3.37C521.81,192.29,522.83,195.32,522.83,199.13z M505.24,199.13c0,5.57,2.06,8.36,6.18,8.36
		c4.08,0,6.12-2.79,6.12-8.36c0-5.52-2.05-8.28-6.16-8.28c-2.15,0-3.72,0.71-4.69,2.14C505.73,194.42,505.24,196.47,505.24,199.13z"
		/>
	<path class="st2" d="M549.26,211.25h-5.15V196.4c0-1.86-0.38-3.26-1.13-4.17c-0.75-0.92-1.94-1.38-3.57-1.38
		c-2.17,0-3.76,0.64-4.76,1.92c-1,1.28-1.51,3.43-1.51,6.44v12.03h-5.13V187.1h4.02l0.72,3.17h0.26c0.73-1.15,1.76-2.04,3.1-2.66
		c1.34-0.63,2.82-0.94,4.46-0.94c5.8,0,8.69,2.95,8.69,8.84V211.25z"/>
</g>
</svg>
