<svg id="Layer_1" data-name="Layer 1" xmlns="http://www.w3.org/2000/svg" viewBox="0 0 122.87 122.88"><title>free-tag-line</title><path d="M96.34,14.89a11.16,11.16,0,1,1-7.9,3.27,11.13,11.13,0,0,1,7.9-3.27ZM62.93,40l9.63-9.62,4.19,4.18L72.9,38.4l4,4,3.59-3.6,4,4L80.9,46.39,85.51,51l4.24-4.24L93.94,51l-10,10-21-21ZM23.26,79.66,33,69.9l4.19,4.19-4,4,4,4,3.53-3.53,4,4-3.53,3.53L50,94.87l-5.78,5.78-21-21ZM35,67.92l4.09-4.09a46.47,46.47,0,0,1,5.83-5.23,5.41,5.41,0,0,1,3.88-.83c1.42.21,3,1.21,4.82,3q2.45,2.44,2.64,3.93c.13,1-.38,2.17-1.53,3.55A6.29,6.29,0,0,1,58.11,67a4.49,4.49,0,0,1,2,.5,26.29,26.29,0,0,1,3.25,3L68.87,76l-5.36,5.36-7-7a6.48,6.48,0,0,0-2.38-1.8c-.45-.09-1.06.26-1.86,1.06l9.48,9.47L56,88.9l-21-21Zm9.37-2.2L49,70.39a3.85,3.85,0,0,0,1.1-1.6c.08-.43-.33-1.11-1.25-2L47.73,65.6c-.67-.67-1.23-1-1.68-.94a3.12,3.12,0,0,0-1.68,1.06Zm6.32-13.49,9.63-9.63,4.19,4.19-3.85,3.85,4,4,3.59-3.6,4,4-3.6,3.59,4.62,4.62L77.51,59,81.7,63.2l-10,10-21-21Zm71.51-6.79L45.44,122.2a2.32,2.32,0,0,1-3.29,0L.68,80.73a2.32,2.32,0,0,1,0-3.29L77.44.68A2.33,2.33,0,0,1,79.08,0h40.11a2.32,2.32,0,0,1,2.32,2.32v.12l1.36,41.28a2.28,2.28,0,0,1-.68,1.71ZM43.79,117.27,118.2,42.86,117,4.65H80.05L5.61,79.09l38.18,38.18ZM89,26.06a7.35,7.35,0,0,0,12.54,5.19c10-10-12.54-19.06-12.54-5.19Z"/></svg>